<svg id="Layer_1" data-name="Layer 1" xmlns="http://www.w3.org/2000/svg" viewBox="0 0 170 170"><defs><style>.cls-1{fill:#cffeea;}.cls-2{fill:#00d293;}</style></defs><title>Pay antywhere </title><circle class="cls-1" cx="85" cy="85" r="85"/><path class="cls-2" d="M79,128.05a19.78,19.78,0,0,1-11.23-3.78c-9-6.49-14.5-.61-14.73-.36a2.75,2.75,0,0,1-3.85.23,2.82,2.82,0,0,1-.94-2.16V48.83a9.33,9.33,0,0,1,9.33-9.33h54.17a9,9,0,0,1,9,9v73.43a2.9,2.9,0,0,1-1.33,2.5,2.76,2.76,0,0,1-3.53-.6c-.75-.89-7.62-8.54-16.16-2.44a2.85,2.85,0,0,1-3.84-.38,2.74,2.74,0,0,1,.49-4c7.21-5.25,14.11-3.74,18.87-.85V51.25A6.25,6.25,0,0,0,109,45H60.33a6.59,6.59,0,0,0-6.58,6.58v65.36c4.23-1.78,10.35-2.09,17.28,2.9.36.26,7.86,5.69,14,.45a2.88,2.88,0,0,1,3.88,0,2.75,2.75,0,0,1-.13,4A14.57,14.57,0,0,1,79,128.05Z"/><path class="cls-2" d="M115.06,61.08H53.94a2.76,2.76,0,1,1,0-5.5h61.12a2.76,2.76,0,1,1,0,5.5Z"/><path class="cls-2" d="M106.58,86.17H92a2.75,2.75,0,0,1,0-5.5h14.56a2.75,2.75,0,0,1,0,5.5Z"/><path class="cls-2" d="M106.58,99.22H92a2.75,2.75,0,0,1,0-5.5h14.56a2.75,2.75,0,1,1,0,5.5Z"/><path class="cls-2" d="M74.62,104.25H63.93a2.75,2.75,0,0,1,0-5.5H74.62A3.72,3.72,0,0,0,78.33,95v-.49a3.72,3.72,0,0,0-3.71-3.72H70.39a9.21,9.21,0,0,1,0-18.42H81.08a2.75,2.75,0,1,1,0,5.5H70.39a3.71,3.71,0,0,0,0,7.42h4.23a9.23,9.23,0,0,1,9.21,9.22V95A9.23,9.23,0,0,1,74.62,104.25Z"/><path class="cls-2" d="M73.12,109.76A2.75,2.75,0,0,1,70.37,107V70.25a2.75,2.75,0,0,1,5.5,0V107A2.75,2.75,0,0,1,73.12,109.76Z"/></svg>