<svg id="Layer_1" data-name="Layer 1" xmlns="http://www.w3.org/2000/svg" viewBox="0 0 170 170"><defs><style>.cls-1{fill:#cffeea;}.cls-2{fill:#00d293;}</style></defs><title>Quick process </title><circle class="cls-1" cx="85" cy="85" r="85"/><path class="cls-2" d="M86.37,91.25l7.48-7.47V73.2a2.95,2.95,0,1,1,5.89,0V85a3,3,0,0,1-.86,2.09l-8.34,8.34a3,3,0,0,1-4.17-4.18Zm48.74-7.82c-.82-20.28-18.66-36.78-39.78-36.78H73.2a3,3,0,0,0,0,5.9H95.33c18,0,33.19,14,33.88,31.12A32.47,32.47,0,0,1,96.8,117.45H73.2a3,3,0,0,0,0,5.9H96.8a38.37,38.37,0,0,0,38.31-39.92ZM64.35,85a2.94,2.94,0,0,0-2.94-3H37.81a3,3,0,0,0,0,5.9h23.6A2.94,2.94,0,0,0,64.35,85Zm1.8-20.65H43.71a3,3,0,0,0,0,5.9H66.15a3,3,0,0,0,0-5.9Zm0,35.4H43.71a3,3,0,0,0,0,5.9H66.15a3,3,0,0,0,0-5.9Z"/><path class="cls-2" d="M96,111.75A26.75,26.75,0,1,1,122.75,85,26.78,26.78,0,0,1,96,111.75Zm0-48A21.25,21.25,0,1,0,117.25,85,21.27,21.27,0,0,0,96,63.75Z"/></svg>