<svg id="Layer_1" data-name="Layer 1" xmlns="http://www.w3.org/2000/svg" viewBox="0 0 170 170"><defs><style>.cls-1{fill:#cffeea;}.cls-2{fill:#00d293;}</style></defs><title>support </title><circle class="cls-1" cx="85" cy="85" r="85"/><path class="cls-2" d="M113.33,75.76A2.75,2.75,0,0,1,110.58,73V70.83a25.58,25.58,0,1,0-51.16,0V73a2.75,2.75,0,0,1-5.5,0V70.83a31.08,31.08,0,1,1,62.16,0V73A2.75,2.75,0,0,1,113.33,75.76Z"/><path class="cls-2" d="M62.12,106.28H55.19A11.1,11.1,0,0,1,44.11,95.19V82.44A11.09,11.09,0,0,1,55.19,71.35h6.93a2.75,2.75,0,0,1,2.75,2.75v29.43A2.76,2.76,0,0,1,62.12,106.28ZM55.19,76.85a5.59,5.59,0,0,0-5.58,5.59V95.19a5.59,5.59,0,0,0,5.58,5.59h4.18V76.85Z"/><path class="cls-2" d="M114.81,106.28h-6.93a2.76,2.76,0,0,1-2.75-2.75V74.1a2.75,2.75,0,0,1,2.75-2.75h6.93a11.09,11.09,0,0,1,11.08,11.09V95.19A11.1,11.1,0,0,1,114.81,106.28Zm-4.18-5.5h4.18a5.59,5.59,0,0,0,5.58-5.59V82.44a5.59,5.59,0,0,0-5.58-5.59h-4.18Z"/><path class="cls-2" d="M104.07,124.8H97a2.75,2.75,0,0,1,0-5.5h7.08A4.33,4.33,0,0,0,108.4,115a2.75,2.75,0,0,1,5.5,0A9.84,9.84,0,0,1,104.07,124.8Z"/><path class="cls-2" d="M94.15,130.25h-8.5a5.59,5.59,0,0,1-5.58-5.58v-4.14a5.6,5.6,0,0,1,5.58-5.59h8.5a5.6,5.6,0,0,1,5.59,5.59v4.14A5.59,5.59,0,0,1,94.15,130.25Zm-8.5-9.81a.09.09,0,0,0-.08.09v4.14a.09.09,0,0,0,.08.08h8.5a.09.09,0,0,0,.09-.08v-4.14a.09.09,0,0,0-.09-.09Z"/></svg>